<?xml version="1.0" encoding="UTF-8"?>
<svg width="1798px" height="2737px" viewBox="0 0 1798 2737" version="1.1" xmlns="http://www.w3.org/2000/svg" xmlns:xlink="http://www.w3.org/1999/xlink" style="background: #FFFFFF;">
    <!-- Generator: Sketch 47.1 (45422) - http://www.bohemiancoding.com/sketch -->
    <title>optimizing-collections/optimizing-collections-cover-clean</title>
    <desc>Created with Sketch.</desc>
    <defs>
        <linearGradient x1="50%" y1="-2.51534904e-15%" x2="50%" y2="99.2406728%" id="linearGradient-1">
            <stop stop-color="#00DEA3" offset="0%"></stop>
            <stop stop-color="#0B86B7" offset="100%"></stop>
        </linearGradient>
    </defs>
    <g id="Book-Covers" stroke="none" stroke-width="1" fill="none" fill-rule="evenodd">
        <g id="Imagery-/-Covers-/-Optimizing-Collections-/-No-Badge">
            <path d="M205.99,2549.11 C205.99,2550.68667 205.705836,2552.07083 205.1375,2553.2625 C204.569164,2554.45417 203.863338,2555.50833 203.02,2556.425 C201.919995,2557.59834 200.499175,2558.4875 198.7575,2559.0925 C197.015825,2559.6975 195.173343,2560 193.23,2560 L177.5,2560 L177.5,2521.005 L193.065,2521.005 C194.898343,2521.005 196.676658,2521.3075 198.4,2521.9125 C200.123342,2522.5175 201.516661,2523.40666 202.58,2524.58 C203.350004,2525.42334 203.964164,2526.36749 204.4225,2527.4125 C204.880836,2528.45751 205.11,2529.67666 205.11,2531.07 C205.11,2532.94001 204.633338,2534.68166 203.68,2536.295 C202.726662,2537.90834 201.333343,2539.045 199.5,2539.705 C200.490005,2540.035 201.388329,2540.52083 202.195,2541.1625 C203.001671,2541.80417 203.689164,2542.5375 204.2575,2543.3625 C204.825836,2544.1875 205.256665,2545.095 205.55,2546.085 C205.843335,2547.075 205.99,2548.08333 205.99,2549.11 Z M200.105,2531.455 C200.105,2530.42833 199.912502,2529.53917 199.5275,2528.7875 C199.142498,2528.03583 198.62917,2527.40334 197.9875,2526.89 C197.34583,2526.37666 196.594171,2525.99167 195.7325,2525.735 C194.870829,2525.47833 193.981671,2525.35 193.065,2525.35 L182.285,2525.35 L182.285,2537.615 L193.23,2537.615 C195.283344,2537.615 196.942494,2537.13834 198.2075,2536.185 C199.472506,2535.23166 200.105,2533.65501 200.105,2531.455 Z M200.985,2548.78 C200.985,2547.67999 200.783335,2546.70834 200.38,2545.865 C199.976665,2545.02166 199.42667,2544.30667 198.73,2543.72 C198.03333,2543.13333 197.217505,2542.68417 196.2825,2542.3725 C195.347495,2542.06083 194.366672,2541.905 193.34,2541.905 L182.285,2541.905 L182.285,2555.49 L193.23,2555.49 C194.293339,2555.49 195.301662,2555.36167 196.255,2555.105 C197.208338,2554.84833 198.03333,2554.445 198.73,2553.895 C199.42667,2553.345 199.976665,2552.64834 200.38,2551.805 C200.783335,2550.96166 200.985,2549.95334 200.985,2548.78 Z M221.965,2565.72 C221.304997,2567.51668 220.406672,2568.95583 219.27,2570.0375 C218.133328,2571.11917 216.52001,2571.66 214.43,2571.66 C213.256661,2571.66 212.303337,2571.58667 211.57,2571.44 C210.836663,2571.29333 210.378334,2571.18333 210.195,2571.11 L210.195,2567.04 C210.488335,2567.11333 210.818331,2567.18667 211.185,2567.26 C211.478335,2567.33333 211.817498,2567.38833 212.2025,2567.425 C212.587502,2567.46167 213.018331,2567.48 213.495,2567.48 C214.485005,2567.48 215.32833,2567.27834 216.025,2566.875 C216.72167,2566.47166 217.271665,2565.73834 217.675,2564.675 L219.435,2560 L208.325,2532.17 L213.605,2532.17 L221.8,2554.115 L229.61,2532.17 L234.505,2532.17 L221.965,2565.72 Z M276.08,2560 L264.42,2539.76 L256.5,2549 L256.5,2560 L251.605,2560 L251.605,2521.005 L256.5,2521.005 L256.5,2541.795 L274.375,2521.005 L280.48,2521.005 L267.775,2535.855 L281.8,2560 L276.08,2560 Z M309.875,2559.725 C309.361664,2559.98167 308.866669,2560.15583 308.39,2560.2475 C307.913331,2560.33917 307.38167,2560.385 306.795,2560.385 C305.548327,2560.385 304.567504,2559.9725 303.8525,2559.1475 C303.137496,2558.3225 302.78,2557.32334 302.78,2556.15 L302.67,2556.15 C301.863329,2557.54334 300.662508,2558.6525 299.0675,2559.4775 C297.472492,2560.3025 295.68501,2560.715 293.705,2560.715 C292.091659,2560.715 290.689173,2560.4675 289.4975,2559.9725 C288.305827,2559.4775 287.315837,2558.82667 286.5275,2558.02 C285.739163,2557.21333 285.143335,2556.29667 284.74,2555.27 C284.336665,2554.24333 284.135,2553.19834 284.135,2552.135 C284.135,2551.255 284.290832,2550.32 284.6025,2549.33 C284.914168,2548.34 285.454996,2547.4325 286.225,2546.6075 C286.995004,2545.7825 288.012494,2545.07667 289.2775,2544.49 C290.542506,2543.90333 292.128324,2543.555 294.035,2543.445 L302.505,2542.95 L302.505,2540.915 C302.505,2540.21833 302.422501,2539.485 302.2575,2538.715 C302.092499,2537.945 301.698336,2537.26667 301.075,2536.68 C300.598331,2536.24 300.002504,2535.89167 299.2875,2535.635 C298.572496,2535.37833 297.646672,2535.25 296.51,2535.25 C295.22666,2535.25 294.181671,2535.40583 293.375,2535.7175 C292.568329,2536.02917 291.926669,2536.42333 291.45,2536.9 C290.533329,2537.81667 290.075,2538.93499 290.075,2540.255 L285.51,2540.255 C285.546667,2538.97166 285.775831,2537.8625 286.1975,2536.9275 C286.619169,2535.9925 287.196663,2535.15834 287.93,2534.425 C288.883338,2533.435 290.120826,2532.6925 291.6425,2532.1975 C293.164174,2531.7025 294.786658,2531.455 296.51,2531.455 C299.223347,2531.455 301.368325,2531.95916 302.945,2532.9675 C304.521675,2533.97584 305.639997,2535.24999 306.3,2536.79 C306.850003,2538.07334 307.125,2539.50333 307.125,2541.08 L307.125,2554.555 C307.125,2555.28834 307.262499,2555.78333 307.5375,2556.04 C307.812501,2556.29667 308.188331,2556.425 308.665,2556.425 L309.05,2556.425 C309.196667,2556.425 309.324999,2556.40667 309.435,2556.37 L309.875,2556.26 L309.875,2559.725 Z M302.505,2546.58 L295.025,2547.02 C294.32833,2547.05667 293.613337,2547.17583 292.88,2547.3775 C292.146663,2547.57917 291.48667,2547.8725 290.9,2548.2575 C290.31333,2548.6425 289.836668,2549.14666 289.47,2549.77 C289.103331,2550.39334 288.92,2551.145 288.92,2552.025 C288.92,2553.27167 289.341662,2554.38083 290.185,2555.3525 C291.028338,2556.32417 292.43999,2556.81 294.42,2556.81 C295.483339,2556.81 296.519162,2556.62667 297.5275,2556.26 C298.535838,2555.89333 299.406663,2555.325 300.14,2554.555 C300.983338,2553.71166 301.588331,2552.74001 301.955,2551.64 C302.321668,2550.53999 302.505,2549.40334 302.505,2548.23 L302.505,2546.58 Z M292.11,2529.475 L290.46,2526.89 L299.81,2520.125 L302.285,2524.03 L292.11,2529.475 Z M331.515,2536.735 C331.111665,2536.66167 330.680836,2536.60667 330.2225,2536.57 C329.764164,2536.53333 329.333335,2536.515 328.93,2536.515 C327.829994,2536.515 326.830838,2536.72583 325.9325,2537.1475 C325.034162,2537.56917 324.273336,2538.09166 323.65,2538.715 C323.099997,2539.265 322.650835,2539.8975 322.3025,2540.6125 C321.954165,2541.3275 321.697501,2542.08833 321.5325,2542.895 C321.367499,2543.70167 321.2575,2544.50833 321.2025,2545.315 C321.1475,2546.12167 321.12,2546.89166 321.12,2547.625 L321.12,2560 L316.5,2560 L316.5,2532.17 L320.625,2532.17 L321.01,2537.065 C321.743337,2535.34166 322.870826,2534.0675 324.3925,2533.2425 C325.914174,2532.4175 327.554991,2532.005 329.315,2532.005 C330.048337,2532.005 330.781663,2532.06 331.515,2532.17 L331.515,2536.735 Z M358.435,2546.085 C358.435,2548.28501 358.160003,2550.35666 357.61,2552.3 C357.059997,2554.24334 356.015008,2555.96666 354.475,2557.47 C353.448328,2558.46 352.229174,2559.24833 350.8175,2559.835 C349.405826,2560.42167 347.820009,2560.715 346.06,2560.715 C344.299991,2560.715 342.714174,2560.42167 341.3025,2559.835 C339.890826,2559.24833 338.671672,2558.46 337.645,2557.47 C336.104992,2555.96666 335.060003,2554.24334 334.51,2552.3 C333.959997,2550.35666 333.685,2548.28501 333.685,2546.085 C333.685,2543.88499 333.959997,2541.81334 334.51,2539.87 C335.060003,2537.92666 336.104992,2536.20334 337.645,2534.7 C338.671672,2533.71 339.890826,2532.92167 341.3025,2532.335 C342.714174,2531.74833 344.299991,2531.455 346.06,2531.455 C347.820009,2531.455 349.405826,2531.74833 350.8175,2532.335 C352.229174,2532.92167 353.448328,2533.71 354.475,2534.7 C356.015008,2536.20334 357.059997,2537.92666 357.61,2539.87 C358.160003,2541.81334 358.435,2543.88499 358.435,2546.085 Z M353.65,2546.085 C353.65,2544.43499 353.466668,2542.84001 353.1,2541.3 C352.733331,2539.75999 352.055005,2538.47667 351.065,2537.45 C350.47833,2536.86333 349.772504,2536.38667 348.9475,2536.02 C348.122496,2535.65333 347.160005,2535.47 346.06,2535.47 C344.959994,2535.47 343.997504,2535.65333 343.1725,2536.02 C342.347496,2536.38667 341.64167,2536.86333 341.055,2537.45 C340.064995,2538.47667 339.386668,2539.75999 339.02,2541.3 C338.653331,2542.84001 338.47,2544.43499 338.47,2546.085 C338.47,2547.73501 338.653331,2549.32999 339.02,2550.87 C339.386668,2552.41001 340.064995,2553.69333 341.055,2554.72 C341.64167,2555.30667 342.347496,2555.78333 343.1725,2556.15 C343.997504,2556.51667 344.959994,2556.7 346.06,2556.7 C347.160005,2556.7 348.122496,2556.51667 348.9475,2556.15 C349.772504,2555.78333 350.47833,2555.30667 351.065,2554.72 C352.055005,2553.69333 352.733331,2552.41001 353.1,2550.87 C353.466668,2549.32999 353.65,2547.73501 353.65,2546.085 Z M374.685,2560 C374.464999,2560.07333 374.190002,2560.12833 373.86,2560.165 C373.309997,2560.275 372.485005,2560.33 371.385,2560.33 C369.331656,2560.33 367.846671,2559.74334 366.93,2558.57 C366.013329,2557.39666 365.555,2555.71001 365.555,2553.51 L365.555,2520.29 L370.23,2520.29 L370.23,2553.235 C370.23,2554.18834 370.413331,2554.90333 370.78,2555.38 C371.146668,2555.85667 371.806662,2556.095 372.76,2556.095 L374.3,2556.095 C374.446667,2556.095 374.574999,2556.07667 374.685,2556.04 L374.685,2560 Z M389.56,2565.72 C388.899997,2567.51668 388.001672,2568.95583 386.865,2570.0375 C385.728328,2571.11917 384.11501,2571.66 382.025,2571.66 C380.851661,2571.66 379.898337,2571.58667 379.165,2571.44 C378.431663,2571.29333 377.973334,2571.18333 377.79,2571.11 L377.79,2567.04 C378.083335,2567.11333 378.413331,2567.18667 378.78,2567.26 C379.073335,2567.33333 379.412498,2567.38833 379.7975,2567.425 C380.182502,2567.46167 380.613331,2567.48 381.09,2567.48 C382.080005,2567.48 382.92333,2567.27834 383.62,2566.875 C384.31667,2566.47166 384.866665,2565.73834 385.27,2564.675 L387.03,2560 L375.92,2532.17 L381.2,2532.17 L389.395,2554.115 L397.205,2532.17 L402.1,2532.17 L389.56,2565.72 Z M419.2,2560 L419.2,2521.005 L424.095,2521.005 L424.095,2555.435 L442.85,2555.435 L442.85,2560 L419.2,2560 Z M459.524101,2560.67139 C455.352531,2560.67139 452.022486,2559.28834 449.533867,2556.52222 C447.045248,2553.75609 445.800957,2550.05455 445.800957,2545.41748 C445.800957,2540.7267 447.049724,2537.01621 449.547295,2534.28589 C452.044866,2531.55557 455.433097,2530.19043 459.71209,2530.19043 C463.991082,2530.19043 467.379314,2531.55557 469.876885,2534.28589 C472.374456,2537.01621 473.623223,2540.7088 473.623223,2545.36377 C473.623223,2550.12616 472.36998,2553.86799 469.863457,2556.58936 C467.356934,2559.31072 463.910517,2560.67139 459.524101,2560.67139 Z M459.604668,2556.69678 C465.208537,2556.69678 468.01043,2552.91915 468.01043,2545.36377 C468.01043,2537.89791 465.244344,2534.16504 459.71209,2534.16504 C454.197739,2534.16504 451.440605,2537.91582 451.440605,2545.41748 C451.440605,2552.93705 454.161932,2556.69678 459.604668,2556.69678 Z M453.508476,2525.54443 L459.980644,2516.92383 L465.110039,2516.92383 L456.489433,2525.54443 L453.508476,2525.54443 Z M462.961601,2525.54443 L469.406914,2516.92383 L474.536308,2516.92383 L465.942558,2525.54443 L462.961601,2525.54443 Z M495.93418,2536.735 C495.530844,2536.66167 495.100015,2536.60667 494.64168,2536.57 C494.183344,2536.53333 493.752515,2536.515 493.34918,2536.515 C492.249174,2536.515 491.250017,2536.72583 490.35168,2537.1475 C489.453342,2537.56917 488.692516,2538.09166 488.06918,2538.715 C487.519177,2539.265 487.070015,2539.8975 486.72168,2540.6125 C486.373344,2541.3275 486.11668,2542.08833 485.95168,2542.895 C485.786679,2543.70167 485.67668,2544.50833 485.62168,2545.315 C485.566679,2546.12167 485.53918,2546.89166 485.53918,2547.625 L485.53918,2560 L480.91918,2560 L480.91918,2532.17 L485.04418,2532.17 L485.42918,2537.065 C486.162517,2535.34166 487.290005,2534.0675 488.81168,2533.2425 C490.333354,2532.4175 491.974171,2532.005 493.73418,2532.005 C494.467517,2532.005 495.200843,2532.06 495.93418,2532.17 L495.93418,2536.735 Z M523.07418,2547.625 L503.38418,2547.625 C503.38418,2548.90834 503.62251,2550.18249 504.09918,2551.4475 C504.575849,2552.71251 505.235842,2553.76666 506.07918,2554.61 C507.399186,2555.93001 509.104169,2556.59 511.19418,2556.59 C513.467524,2556.59 515.19084,2555.98501 516.36418,2554.775 C516.767515,2554.37166 517.097512,2553.95 517.35418,2553.51 C517.610847,2553.07 517.830845,2552.48334 518.01418,2551.75 L522.57918,2551.75 C522.395845,2553.14334 521.919183,2554.44499 521.14918,2555.655 C520.379176,2556.86501 519.425852,2557.855 518.28918,2558.625 C517.299175,2559.285 516.199186,2559.79833 514.98918,2560.165 C513.779173,2560.53167 512.514186,2560.715 511.19418,2560.715 C509.21417,2560.715 507.445021,2560.33917 505.88668,2559.5875 C504.328338,2558.83583 503.017518,2557.81834 501.95418,2556.535 C500.78084,2555.17833 499.910016,2553.61084 499.34168,2551.8325 C498.773343,2550.05416 498.48918,2548.17501 498.48918,2546.195 C498.48918,2544.50832 498.654178,2542.92251 498.98418,2541.4375 C499.314181,2539.95249 499.864176,2538.56834 500.63418,2537.285 C501.624184,2535.59832 503.017504,2534.20501 504.81418,2533.105 C506.610855,2532.00499 508.719167,2531.455 511.13918,2531.455 C512.935855,2531.455 514.540006,2531.77583 515.95168,2532.4175 C517.363353,2533.05917 518.582508,2533.92999 519.60918,2535.03 C520.745852,2536.27667 521.616677,2537.75249 522.22168,2539.4575 C522.826683,2541.16251 523.12918,2542.94999 523.12918,2544.82 L523.07418,2547.625 Z M518.34418,2543.61 C518.34418,2542.54666 518.197514,2541.52 517.90418,2540.53 C517.610845,2539.54 517.189182,2538.67834 516.63918,2537.945 C516.05251,2537.175 515.300851,2536.56084 514.38418,2536.1025 C513.467508,2535.64416 512.385852,2535.415 511.13918,2535.415 C509.85584,2535.415 508.746684,2535.65333 507.81168,2536.13 C506.876675,2536.60667 506.088349,2537.23 505.44668,2538 C504.80501,2538.77 504.328348,2539.64083 504.01668,2540.6125 C503.705011,2541.58417 503.530846,2542.58333 503.49418,2543.61 L518.34418,2543.61 Z M548.01418,2560 L548.01418,2542.345 C548.01418,2540.25499 547.546684,2538.62334 546.61168,2537.45 C545.676675,2536.27666 544.109191,2535.69 541.90918,2535.69 C540.552506,2535.69 539.360851,2536.08416 538.33418,2536.8725 C537.307508,2537.66084 536.482516,2538.69666 535.85918,2539.98 C535.38251,2541.00667 535.098347,2542.17999 535.00668,2543.5 C534.915012,2544.82001 534.86918,2546.01166 534.86918,2547.075 L534.86918,2560 L530.19418,2560 L530.19418,2532.17 L534.26418,2532.17 L534.64918,2536.35 C535.015848,2535.54333 535.510843,2534.8375 536.13418,2534.2325 C536.757516,2533.6275 537.454176,2533.12334 538.22418,2532.72 C538.994183,2532.31666 539.800842,2532.005 540.64418,2531.785 C541.487517,2531.565 542.294176,2531.455 543.06418,2531.455 C546.254195,2531.455 548.655838,2532.35332 550.26918,2534.15 C551.882521,2535.94668 552.68918,2538.45832 552.68918,2541.685 L552.68918,2560 L548.01418,2560 Z M575.97918,2559.615 C575.355843,2559.79833 574.595017,2559.9725 573.69668,2560.1375 C572.798342,2560.3025 571.707519,2560.385 570.42418,2560.385 C568.920839,2560.385 567.674184,2560.165 566.68418,2559.725 C565.694175,2559.285 564.915016,2558.71667 564.34668,2558.02 C563.778343,2557.32333 563.375014,2556.52584 563.13668,2555.6275 C562.898345,2554.72916 562.77918,2553.80334 562.77918,2552.85 L562.77918,2536.185 L557.38918,2536.185 L557.38918,2532.17 L562.77918,2532.17 L562.77918,2525.075 L567.45418,2523.975 L567.45418,2532.17 L575.70418,2532.17 L575.70418,2536.185 L567.45418,2536.185 L567.45418,2552.3 C567.45418,2553.65667 567.756676,2554.62833 568.36168,2555.215 C568.966683,2555.80167 569.91084,2556.095 571.19418,2556.095 C571.707515,2556.095 572.239177,2556.07667 572.78918,2556.04 C573.339182,2556.00333 573.85251,2555.94833 574.32918,2555.875 C574.879182,2555.80167 575.429177,2555.71 575.97918,2555.6 L575.97918,2559.615 Z M603.779179,2547.625 L584.089179,2547.625 C584.089179,2548.90834 584.32751,2550.18249 584.804179,2551.4475 C585.280849,2552.71251 585.940842,2553.76666 586.784179,2554.61 C588.104186,2555.93001 589.809169,2556.59 591.899179,2556.59 C594.172524,2556.59 595.89584,2555.98501 597.069179,2554.775 C597.472515,2554.37166 597.802512,2553.95 598.059179,2553.51 C598.315847,2553.07 598.535845,2552.48334 598.719179,2551.75 L603.284179,2551.75 C603.100845,2553.14334 602.624183,2554.44499 601.854179,2555.655 C601.084176,2556.86501 600.130852,2557.855 598.994179,2558.625 C598.004175,2559.285 596.904186,2559.79833 595.694179,2560.165 C594.484173,2560.53167 593.219186,2560.715 591.899179,2560.715 C589.91917,2560.715 588.150021,2560.33917 586.591679,2559.5875 C585.033338,2558.83583 583.722518,2557.81834 582.659179,2556.535 C581.48584,2555.17833 580.615016,2553.61084 580.046679,2551.8325 C579.478343,2550.05416 579.194179,2548.17501 579.194179,2546.195 C579.194179,2544.50832 579.359178,2542.92251 579.689179,2541.4375 C580.019181,2539.95249 580.569176,2538.56834 581.339179,2537.285 C582.329184,2535.59832 583.722504,2534.20501 585.519179,2533.105 C587.315855,2532.00499 589.424167,2531.455 591.844179,2531.455 C593.640855,2531.455 595.245006,2531.77583 596.656679,2532.4175 C598.068353,2533.05917 599.287508,2533.92999 600.314179,2535.03 C601.450852,2536.27667 602.321676,2537.75249 602.926679,2539.4575 C603.531683,2541.16251 603.834179,2542.94999 603.834179,2544.82 L603.779179,2547.625 Z M599.049179,2543.61 C599.049179,2542.54666 598.902514,2541.52 598.609179,2540.53 C598.315845,2539.54 597.894182,2538.67834 597.344179,2537.945 C596.75751,2537.175 596.005851,2536.56084 595.089179,2536.1025 C594.172508,2535.64416 593.090852,2535.415 591.844179,2535.415 C590.56084,2535.415 589.451684,2535.65333 588.516679,2536.13 C587.581675,2536.60667 586.793349,2537.23 586.151679,2538 C585.51001,2538.77 585.033348,2539.64083 584.721679,2540.6125 C584.410011,2541.58417 584.235846,2542.58333 584.199179,2543.61 L599.049179,2543.61 Z M619.259179,2565.72 C618.599176,2567.51668 617.700852,2568.95583 616.564179,2570.0375 C615.427507,2571.11917 613.81419,2571.66 611.724179,2571.66 C610.55084,2571.66 609.597516,2571.58667 608.864179,2571.44 C608.130842,2571.29333 607.672514,2571.18333 607.489179,2571.11 L607.489179,2567.04 C607.782514,2567.11333 608.112511,2567.18667 608.479179,2567.26 C608.772514,2567.33333 609.111678,2567.38833 609.496679,2567.425 C609.881681,2567.46167 610.31251,2567.48 610.789179,2567.48 C611.779184,2567.48 612.622509,2567.27834 613.319179,2566.875 C614.01585,2566.47166 614.565844,2565.73834 614.969179,2564.675 L616.729179,2560 L605.619179,2532.17 L610.899179,2532.17 L619.094179,2554.115 L626.904179,2532.17 L631.799179,2532.17 L619.259179,2565.72 Z" id="By-Author" fill="#0A86B7"></path>
            <path d="M309.952,553.376 C309.952,560.544036 309.653336,567.583965 309.056,574.496 C308.458664,581.408035 307.349341,588.021302 305.728,594.336 C304.106659,600.650698 301.760015,606.666638 298.688,612.384 C295.615985,618.101362 291.605358,623.349309 286.656,628.128 C280.170634,634.613366 272.704042,639.477317 264.256,642.72 C255.807958,645.962683 246.976046,647.584 237.76,647.584 C228.543954,647.584 219.712042,645.962683 211.264,642.72 C202.815958,639.477317 195.349366,634.613366 188.864,628.128 C183.914642,623.349309 179.904015,618.101362 176.832,612.384 C173.759985,606.666638 171.413341,600.650698 169.792,594.336 C168.170659,588.021302 167.061336,581.408035 166.464,574.496 C165.866664,567.583965 165.568,560.544036 165.568,553.376 C165.568,546.207964 165.866664,539.168035 166.464,532.256 C167.061336,525.343965 168.170659,518.730698 169.792,512.416 C171.413341,506.101302 173.759985,500.085362 176.832,494.368 C179.904015,488.650638 183.914642,483.402691 188.864,478.624 C195.349366,472.138634 202.815958,467.274683 211.264,464.032 C219.712042,460.789317 228.543954,459.168 237.76,459.168 C246.976046,459.168 255.807958,460.789317 264.256,464.032 C272.704042,467.274683 280.170634,472.138634 286.656,478.624 C291.605358,483.402691 295.615985,488.650638 298.688,494.368 C301.760015,500.085362 304.106659,506.101302 305.728,512.416 C307.349341,518.730698 308.458664,525.343965 309.056,532.256 C309.653336,539.168035 309.952,546.207964 309.952,553.376 Z M286.4,553.376 C286.4,548.597309 286.272001,543.562693 286.016,538.272 C285.759999,532.981307 285.120005,527.733359 284.096,522.528 C283.071995,517.322641 281.53601,512.330691 279.488,507.552 C277.43999,502.773309 274.538685,498.421353 270.784,494.496 C266.346644,490.058644 261.269362,486.688012 255.552,484.384 C249.834638,482.079988 243.904031,480.928 237.76,480.928 C231.615969,480.928 225.685362,482.079988 219.968,484.384 C214.250638,486.688012 209.173356,490.058644 204.736,494.496 C200.981315,498.421353 198.08001,502.773309 196.032,507.552 C193.98399,512.330691 192.448005,517.322641 191.424,522.528 C190.399995,527.733359 189.760001,532.981307 189.504,538.272 C189.247999,543.562693 189.12,548.597309 189.12,553.376 C189.12,558.154691 189.247999,563.189307 189.504,568.48 C189.760001,573.770693 190.399995,579.018641 191.424,584.224 C192.448005,589.429359 193.98399,594.463976 196.032,599.328 C198.08001,604.192024 200.981315,608.501315 204.736,612.256 C209.173356,616.693356 214.250638,620.063988 219.968,622.368 C225.685362,624.672012 231.615969,625.824 237.76,625.824 C243.904031,625.824 249.834638,624.672012 255.552,622.368 C261.269362,620.063988 266.346644,616.693356 270.784,612.256 C274.538685,608.501315 277.43999,604.192024 279.488,599.328 C281.53601,594.463976 283.071995,589.429359 284.096,584.224 C285.120005,579.018641 285.759999,573.770693 286.016,568.48 C286.272001,563.189307 286.4,558.154691 286.4,553.376 Z M455.416,579.232 C455.416,590.496056 453.752017,600.949285 450.424,610.592 C447.095983,620.234715 442.189366,628.213302 435.704,634.528 C431.437312,638.453353 426.36003,641.610655 420.472,644 C414.583971,646.389345 407.800038,647.584 400.12,647.584 C396.535982,647.584 392.909352,647.157338 389.24,646.304 C385.570648,645.450662 382.02935,644.256008 378.616,642.72 C375.20265,641.183992 372.088014,639.264012 369.272,636.96 C366.455986,634.655988 364.194675,632.053348 362.488,629.152 L362.488,699.552 L340.728,699.552 L340.728,514.72 L359.928,514.72 L361.464,531.616 C365.218686,525.130634 370.765297,520.138684 378.104,516.64 C385.442703,513.141316 392.781297,511.392 400.12,511.392 C408.141374,511.392 415.181303,512.629321 421.24,515.104 C427.298697,517.578679 432.461312,521.034644 436.728,525.472 C442.872031,531.786698 447.522651,539.637286 450.68,549.024 C453.837349,558.410714 455.416,568.479946 455.416,579.232 Z M433.144,579.488 C433.144,573.514637 432.589339,567.584029 431.48,561.696 C430.370661,555.807971 428.45068,550.474691 425.72,545.696 C422.98932,540.917309 419.234691,537.077348 414.456,534.176 C409.67731,531.274652 403.704036,529.824 396.536,529.824 C391.75731,529.824 387.704017,530.634659 384.376,532.256 C381.047983,533.877341 378.104013,535.882655 375.544,538.272 C370.082639,543.050691 366.32801,549.06663 364.28,556.32 C362.23199,563.57337 361.208,571.295959 361.208,579.488 C361.208,587.680041 362.23199,595.40263 364.28,602.656 C366.32801,609.90937 370.082639,615.925309 375.544,620.704 C378.104013,623.093345 381.047983,625.098659 384.376,626.72 C387.704017,628.341341 391.75731,629.152 396.536,629.152 C403.704036,629.152 409.67731,627.701348 414.456,624.8 C419.234691,621.898652 422.98932,618.058691 425.72,613.28 C428.45068,608.501309 430.370661,603.168029 431.48,597.28 C432.589339,591.391971 433.144,585.461363 433.144,579.488 Z M552.24,642.208 C549.338652,643.061338 545.797354,643.871996 541.616,644.64 C537.434646,645.408004 532.357363,645.792 526.384,645.792 C519.386632,645.792 513.584023,644.76801 508.976,642.72 C504.367977,640.67199 500.741347,638.026683 498.096,634.784 C495.450654,631.541317 493.573339,627.829354 492.464,623.648 C491.354661,619.466646 490.8,615.157356 490.8,610.72 L490.8,533.152 L465.712,533.152 L465.712,514.464 L490.8,514.464 L490.8,481.44 L512.56,476.32 L512.56,514.464 L550.96,514.464 L550.96,533.152 L512.56,533.152 L512.56,608.16 C512.56,614.474698 513.967986,618.99732 516.784,621.728 C519.600014,624.45868 523.994637,625.824 529.968,625.824 C532.357345,625.824 534.831987,625.738668 537.392,625.568 C539.952013,625.397332 542.341322,625.141335 544.56,624.8 C547.120013,624.458665 549.679987,624.032003 552.24,623.52 L552.24,642.208 Z M575.592,484.768 L575.592,459.168 L600.936,459.168 L600.936,484.768 L575.592,484.768 Z M577.128,644 L577.128,514.464 L599.4,514.464 L599.4,644 L577.128,644 Z M797.856,644 L797.856,561.568 C797.856,556.959977 797.429338,552.778685 796.576,549.024 C795.722663,545.269315 794.314677,542.069347 792.352,539.424 C790.389324,536.778653 787.701351,534.688008 784.288,533.152 C780.87465,531.615992 776.608026,530.848 771.488,530.848 C767.39198,530.848 763.722683,531.615992 760.48,533.152 C757.237318,534.688008 754.336013,536.82132 751.776,539.552 C747.338645,543.989356 744.394674,549.322636 742.944,555.552 C741.493326,561.781364 740.768,568.309299 740.768,575.136 L740.768,644 L719.008,644 L719.008,561.568 C719.008,556.959977 718.624004,552.778685 717.856,549.024 C717.087997,545.269315 715.722677,542.069347 713.76,539.424 C711.797324,536.778653 709.109351,534.688008 705.696,533.152 C702.28265,531.615992 698.016026,530.848 692.896,530.848 C688.287977,530.848 684.149352,531.914656 680.48,534.048 C676.810649,536.181344 673.610681,538.95465 670.88,542.368 C667.637318,546.46402 665.376007,551.583969 664.096,557.728 C662.815994,563.872031 662.176,569.674639 662.176,575.136 L662.176,644 L640.416,644 L640.416,514.464 L659.36,514.464 L661.408,532.896 C664.821351,525.557297 669.898633,520.096018 676.64,516.512 C683.381367,512.927982 690.421297,511.136 697.76,511.136 C707.488049,511.136 715.637301,513.226646 722.208,517.408 C728.7787,521.589354 733.514653,527.690627 736.416,535.712 C738.122676,531.61598 740.383986,528.032015 743.2,524.96 C746.016014,521.887985 749.215982,519.32801 752.8,517.28 C756.384018,515.23199 760.181314,513.696005 764.192,512.672 C768.202687,511.647995 772.25598,511.136 776.352,511.136 C791.029407,511.136 801.909298,515.487956 808.992,524.192 C816.074702,532.896044 819.616,544.415928 819.616,558.752 L819.616,644 L797.856,644 Z M857.048,484.768 L857.048,459.168 L882.392,459.168 L882.392,484.768 L857.048,484.768 Z M858.584,644 L858.584,514.464 L880.856,514.464 L880.856,644 L858.584,644 Z M911.632001,644 L911.632001,624.8 L986.896001,533.408 L911.632001,533.408 L911.632001,514.464 L1013.264,514.464 L1013.264,533.664 L938.256001,625.056 L1014.032,625.056 L1014.032,644 L911.632001,644 Z M1041.992,484.768 L1041.992,459.168 L1067.336,459.168 L1067.336,484.768 L1041.992,484.768 Z M1043.528,644 L1043.528,514.464 L1065.8,514.464 L1065.8,644 L1043.528,644 Z M1189.76,644 L1189.76,561.824 C1189.76,552.095951 1187.58402,544.501361 1183.232,539.04 C1178.87998,533.578639 1171.58405,530.848 1161.344,530.848 C1155.0293,530.848 1149.48269,532.682648 1144.704,536.352 C1139.92531,540.021352 1136.08535,544.842637 1133.184,550.816 C1130.96532,555.594691 1129.64267,561.055969 1129.216,567.2 C1128.78933,573.344031 1128.576,578.890642 1128.576,583.84 L1128.576,644 L1106.816,644 L1106.816,514.464 L1125.76,514.464 L1127.552,533.92 C1129.25868,530.165315 1131.56265,526.880014 1134.464,524.064 C1137.36535,521.247986 1140.60798,518.901343 1144.192,517.024 C1147.77602,515.146657 1151.53065,513.696005 1155.456,512.672 C1159.38135,511.647995 1163.13598,511.136 1166.72,511.136 C1181.56808,511.136 1192.74663,515.317292 1200.256,523.68 C1207.76537,532.042708 1211.52,543.733258 1211.52,558.752 L1211.52,644 L1189.76,644 Z M1360.568,663.2 C1360.568,668.832028 1359.50134,673.823978 1357.368,678.176 C1355.23466,682.528022 1352.63202,686.239985 1349.56,689.312 C1346.48799,692.384015 1342.86136,694.901324 1338.68,696.864 C1334.49865,698.826676 1330.10402,700.362661 1325.496,701.472 C1320.88798,702.581339 1316.19469,703.349331 1311.416,703.776 C1306.63731,704.202669 1301.94402,704.416 1297.336,704.416 C1293.06931,704.416 1288.67469,704.202669 1284.152,703.776 C1279.62931,703.349331 1275.23469,702.581339 1270.968,701.472 C1266.70131,700.362661 1262.60535,698.826676 1258.68,696.864 C1254.75465,694.901324 1251.25602,692.384015 1248.184,689.312 C1245.45332,686.58132 1243.23468,683.338685 1241.528,679.584 C1239.82133,675.829315 1238.968,671.392026 1238.968,666.272 C1238.968,659.445299 1240.75998,653.600024 1244.344,648.736 C1247.92802,643.871976 1252.27998,640.160013 1257.4,637.6 C1252.96265,635.893325 1249.33601,633.077353 1246.52,629.152 C1243.70399,625.226647 1242.296,620.789358 1242.296,615.84 C1242.296,610.037304 1243.91732,605.002688 1247.16,600.736 C1250.40268,596.469312 1254.49864,593.141345 1259.448,590.752 C1254.66931,586.485312 1251.00001,581.365363 1248.44,575.392 C1245.87999,569.418637 1244.6,563.360031 1244.6,557.216 C1244.6,550.047964 1245.70932,543.989358 1247.928,539.04 C1250.14668,534.090642 1253.13332,529.653353 1256.888,525.728 C1261.32536,521.119977 1266.65864,517.536013 1272.888,514.976 C1279.11737,512.415987 1286.58396,511.136 1295.288,511.136 C1301.43203,511.136 1306.93598,511.81866 1311.8,513.184 C1316.66403,514.54934 1321.05865,516.426655 1324.984,518.816 C1327.20268,513.013304 1330.65864,508.533349 1335.352,505.376 C1340.04536,502.218651 1345.46397,500.64 1351.608,500.64 C1352.63201,500.64 1353.69866,500.682666 1354.808,500.768 C1355.91734,500.853334 1356.984,500.981332 1358.008,501.152 L1358.008,518.816 C1357.32533,518.645332 1356.55734,518.56 1355.704,518.56 L1353.144,518.56 C1348.87731,518.56 1345.33601,519.626656 1342.52,521.76 C1339.70399,523.893344 1337.95467,526.751982 1337.272,530.336 C1340.00268,533.74935 1342.09333,537.631978 1343.544,541.984 C1344.99467,546.336022 1345.72,551.413304 1345.72,557.216 C1345.72,563.360031 1344.65334,569.077307 1342.52,574.368 C1340.38666,579.658693 1337.52802,584.266647 1333.944,588.192 C1329.67731,592.800023 1324.34403,596.511986 1317.944,599.328 C1311.54397,602.144014 1303.99204,603.552 1295.288,603.552 C1290.85065,603.552 1287.13868,603.296003 1284.152,602.784 C1281.16532,602.271997 1277.62402,601.33334 1273.528,599.968 C1271.13866,600.821338 1268.70668,602.186657 1266.232,604.064 C1263.75732,605.941343 1262.52,608.415985 1262.52,611.488 C1262.52,614.389348 1263.15999,616.650659 1264.44,618.272 C1265.72001,619.893341 1267.29866,621.173329 1269.176,622.112 C1271.05334,623.050671 1273.14399,623.647999 1275.448,623.904 C1277.75201,624.160001 1279.92799,624.288 1281.976,624.288 L1307.576,624.288 C1315.25604,624.288 1323.02129,625.226657 1330.872,627.104 C1338.72271,628.981343 1345.20798,632.565307 1350.328,637.856 C1353.40002,640.928015 1355.87466,644.554646 1357.752,648.736 C1359.62934,652.917354 1360.568,657.738639 1360.568,663.2 Z M1339.32,663.2 C1339.32,658.421309 1338.25334,654.66668 1336.12,651.936 C1333.98666,649.20532 1331.25602,647.15734 1327.928,645.792 C1324.59998,644.42666 1320.93069,643.573335 1316.92,643.232 C1312.90931,642.890665 1308.94135,642.72 1305.016,642.72 L1275.064,642.72 C1270.62665,644.08534 1266.78668,646.602648 1263.544,650.272 C1260.30132,653.941352 1258.68,658.250642 1258.68,663.2 C1258.68,668.661361 1260.47198,673.183982 1264.056,676.768 C1266.10401,678.81601 1268.53599,680.437327 1271.352,681.632 C1274.16801,682.826673 1277.11199,683.722664 1280.184,684.32 C1283.25602,684.917336 1286.37065,685.301332 1289.528,685.472 C1292.68535,685.642668 1295.71465,685.728 1298.616,685.728 C1301.34668,685.728 1304.33332,685.642668 1307.576,685.472 C1310.81868,685.301332 1314.06132,684.87467 1317.304,684.192 C1320.54668,683.50933 1323.61865,682.570673 1326.52,681.376 C1329.42135,680.181327 1331.89599,678.56001 1333.944,676.512 C1337.52802,672.927982 1339.32,668.490693 1339.32,663.2 Z M1324.472,557.216 C1324.472,549.023959 1321.86936,542.240027 1316.664,536.864 C1311.45864,531.487973 1304.24805,528.8 1295.032,528.8 C1286.15729,528.8 1279.03203,531.487973 1273.656,536.864 C1268.27997,542.240027 1265.592,549.023959 1265.592,557.216 C1265.592,565.408041 1268.19464,572.277306 1273.4,577.824 C1278.60536,583.370694 1285.81595,586.144 1295.032,586.144 C1303.90671,586.144 1311.03197,583.370694 1316.408,577.824 C1321.78403,572.277306 1324.472,565.408041 1324.472,557.216 Z M304.064,882.144 C303.722665,890.677376 301.973349,898.442632 298.816,905.44 C295.658651,912.437368 291.434693,918.666639 286.144,924.128 C280.682639,929.589361 273.685376,934.197315 265.152,937.952 C256.618624,941.706685 247.402716,943.584 237.504,943.584 C228.287954,943.584 219.413376,941.962683 210.88,938.72 C202.346624,935.477317 194.837366,930.613366 188.352,924.128 C183.402642,919.349309 179.434682,914.101362 176.448,908.384 C173.461318,902.666638 171.157341,896.650698 169.536,890.336 C167.914659,884.021302 166.848003,877.408035 166.336,870.496 C165.823997,863.583965 165.568,856.544036 165.568,849.376 C165.568,842.207964 165.823997,835.168035 166.336,828.256 C166.848003,821.343965 167.914659,814.730698 169.536,808.416 C171.157341,802.101302 173.461318,796.085362 176.448,790.368 C179.434682,784.650638 183.402642,779.402691 188.352,774.624 C194.837366,768.138634 202.346624,763.274683 210.88,760.032 C219.413376,756.789317 228.287954,755.168 237.504,755.168 C247.402716,755.168 256.575958,756.917316 265.024,760.416 C273.472042,763.914684 280.426639,768.394639 285.888,773.856 C291.178693,779.317361 295.402651,785.461299 298.56,792.288 C301.717349,799.114701 303.466665,806.794624 303.808,815.328 L280.256,815.328 C280.085332,810.378642 279.104009,805.770688 277.312,801.504 C275.519991,797.237312 273.173348,793.39735 270.272,789.984 C266.687982,786.058647 262.080028,782.858679 256.448,780.384 C250.815972,777.909321 244.501368,776.672 237.504,776.672 C231.359969,776.672 225.429362,777.866655 219.712,780.256 C213.994638,782.645345 208.917356,786.058644 204.48,790.496 C200.725315,794.421353 197.82401,798.773309 195.776,803.552 C193.72799,808.330691 192.192005,813.322641 191.168,818.528 C190.143995,823.733359 189.546668,828.981307 189.376,834.272 C189.205332,839.562693 189.12,844.597309 189.12,849.376 C189.12,854.154691 189.205332,859.189307 189.376,864.48 C189.546668,869.770693 190.143995,875.018641 191.168,880.224 C192.192005,885.429359 193.72799,890.463976 195.776,895.328 C197.82401,900.192024 200.725315,904.501315 204.48,908.256 C208.917356,912.693356 213.994638,916.106655 219.712,918.496 C225.429362,920.885345 231.359969,922.08 237.504,922.08 C244.501368,922.08 250.858638,920.757347 256.576,918.112 C262.293362,915.466653 266.943982,912.181353 270.528,908.256 C273.429348,904.84265 275.775991,900.874689 277.568,896.352 C279.360009,891.829311 280.341332,887.093358 280.512,882.144 L304.064,882.144 Z M436.728,875.232 C436.728,885.472051 435.448013,895.114621 432.888,904.16 C430.327987,913.205379 425.464036,921.226632 418.296,928.224 C413.51731,932.832023 407.8427,936.50132 401.272,939.232 C394.701301,941.96268 387.320041,943.328 379.128,943.328 C370.935959,943.328 363.5547,941.96268 356.984,939.232 C350.413301,936.50132 344.738691,932.832023 339.96,928.224 C332.791964,921.226632 327.928013,913.205379 325.368,904.16 C322.807987,895.114621 321.528,885.472051 321.528,875.232 C321.528,864.991949 322.807987,855.349379 325.368,846.304 C327.928013,837.258621 332.791964,829.237368 339.96,822.24 C344.738691,817.631977 350.413301,813.96268 356.984,811.232 C363.5547,808.50132 370.935959,807.136 379.128,807.136 C387.320041,807.136 394.701301,808.50132 401.272,811.232 C407.8427,813.96268 413.51731,817.631977 418.296,822.24 C425.464036,829.237368 430.327987,837.258621 432.888,846.304 C435.448013,855.349379 436.728,864.991949 436.728,875.232 Z M414.456,875.232 C414.456,867.551962 413.602675,860.128036 411.896,852.96 C410.189325,845.791964 407.032023,839.818691 402.424,835.04 C399.69332,832.30932 396.408019,830.090675 392.568,828.384 C388.727981,826.677325 384.248026,825.824 379.128,825.824 C374.007974,825.824 369.528019,826.677325 365.688,828.384 C361.847981,830.090675 358.56268,832.30932 355.832,835.04 C351.223977,839.818691 348.066675,845.791964 346.36,852.96 C344.653325,860.128036 343.8,867.551962 343.8,875.232 C343.8,882.912038 344.653325,890.335964 346.36,897.504 C348.066675,904.672036 351.223977,910.645309 355.832,915.424 C358.56268,918.15468 361.847981,920.373325 365.688,922.08 C369.528019,923.786675 374.007974,924.64 379.128,924.64 C384.248026,924.64 388.727981,923.786675 392.568,922.08 C396.408019,920.373325 399.69332,918.15468 402.424,915.424 C407.032023,910.645309 410.189325,904.672036 411.896,897.504 C413.602675,890.335964 414.456,882.912038 414.456,875.232 Z M509.488,940 C508.463995,940.341335 507.184008,940.597332 505.648,940.768 C503.087987,941.280003 499.248026,941.536 494.128,941.536 C484.570619,941.536 477.658688,938.805361 473.392,933.344 C469.125312,927.882639 466.992,920.032051 466.992,909.792 L466.992,755.168 L488.752,755.168 L488.752,908.512 C488.752,912.949356 489.605325,916.277322 491.312,918.496 C493.018675,920.714678 496.090645,921.824 500.528,921.824 L507.696,921.824 C508.37867,921.824 508.975998,921.738668 509.488,921.568 L509.488,940 Z M577.384,940 C576.359995,940.341335 575.080008,940.597332 573.544,940.768 C570.983987,941.280003 567.144026,941.536 562.024,941.536 C552.466619,941.536 545.554688,938.805361 541.288,933.344 C537.021312,927.882639 534.888,920.032051 534.888,909.792 L534.888,755.168 L556.648,755.168 L556.648,908.512 C556.648,912.949356 557.501325,916.277322 559.208,918.496 C560.914675,920.714678 563.986645,921.824 568.424,921.824 L575.592,921.824 C576.27467,921.824 576.871998,921.738668 577.384,921.568 L577.384,940 Z M706.464,882.4 L614.816,882.4 C614.816,888.373363 615.925323,894.303971 618.144,900.192 C620.362678,906.080029 623.434647,910.986647 627.36,914.912 C633.504031,921.056031 641.439952,924.128 651.168,924.128 C661.749387,924.128 669.77064,921.312028 675.232,915.68 C677.109343,913.802657 678.645328,911.84001 679.84,909.792 C681.034673,907.74399 682.058663,905.01335 682.912,901.6 L704.16,901.6 C703.306663,908.085366 701.088018,914.143972 697.504,919.776 C693.919982,925.408028 689.482694,930.015982 684.192,933.6 C679.583977,936.672015 674.464029,939.061325 668.832,940.768 C663.199972,942.474675 657.312031,943.328 651.168,943.328 C641.951954,943.328 633.71737,941.578684 626.464,938.08 C619.210631,934.581316 613.109358,929.845363 608.16,923.872 C602.69864,917.557302 598.645347,910.261375 596,901.984 C593.354654,893.706625 592.032,884.960046 592.032,875.744 C592.032,867.893294 592.799993,860.512035 594.336,853.6 C595.872008,846.687965 598.431982,840.245363 602.016,834.272 C606.624023,826.421294 613.109292,819.936026 621.472,814.816 C629.834709,809.695974 639.647944,807.136 650.912,807.136 C659.274709,807.136 666.741301,808.629318 673.312,811.616 C679.8827,814.602682 685.55731,818.655974 690.336,823.776 C695.626694,829.578696 699.679986,836.44796 702.496,844.384 C705.312014,852.32004 706.72,860.639956 706.72,869.344 L706.464,882.4 Z M684.448,863.712 C684.448,858.762642 683.765341,853.984023 682.4,849.376 C681.03466,844.767977 679.072013,840.75735 676.512,837.344 C673.78132,833.759982 670.282688,830.901344 666.016,828.768 C661.749312,826.634656 656.714696,825.568 650.912,825.568 C644.938637,825.568 639.776022,826.677322 635.424,828.896 C631.071979,831.114678 627.402682,834.015982 624.416,837.6 C621.429319,841.184018 619.210674,845.237311 617.76,849.76 C616.309326,854.282689 615.498668,858.933309 615.328,863.712 L684.448,863.712 Z M837.336,896.48 C836.823998,903.477368 835.288013,909.621307 832.728,914.912 C830.167988,920.202693 826.669356,924.981312 822.232,929.248 C817.623977,933.685356 812.248031,937.141321 806.104,939.616 C799.95997,942.090679 792.877374,943.328 784.856,943.328 C773.079942,943.328 763.394705,940.981357 755.8,936.288 C748.205296,931.594643 742.104024,925.834701 737.496,919.008 C734.08265,913.887974 731.437343,907.744036 729.56,900.576 C727.682658,893.407964 726.744,884.960049 726.744,875.232 C726.744,865.503951 727.682658,857.056036 729.56,849.888 C731.437343,842.719964 734.08265,836.576026 737.496,831.456 C742.104024,824.629299 748.205296,818.869357 755.8,814.176 C763.394705,809.482643 772.994609,807.136 784.6,807.136 C792.280039,807.136 799.234636,808.330655 805.464,810.72 C811.693365,813.109345 817.026645,816.522644 821.464,820.96 C825.901356,825.226688 829.442654,830.047973 832.088,835.424 C834.733347,840.800027 836.311998,847.071964 836.824,854.24 L814.808,854.24 C814.295998,849.802644 813.229342,845.920017 811.608,842.592 C809.986659,839.263983 807.981346,836.405345 805.592,834.016 C803.031988,831.626655 799.960018,829.706674 796.376,828.256 C792.791983,826.805326 788.866688,826.08 784.6,826.08 C779.650642,826.08 775.384018,826.890659 771.8,828.512 C768.215983,830.133341 764.973348,832.138655 762.072,834.528 C756.951975,838.965356 753.496009,844.853297 751.704,852.192 C749.911992,859.530703 749.016,867.210627 749.016,875.232 C749.016,883.253373 749.911992,890.933297 751.704,898.272 C753.496009,905.610703 756.951975,911.498644 762.072,915.936 C764.973348,918.325345 768.215983,920.330659 771.8,921.952 C775.384018,923.573341 779.650642,924.384 784.6,924.384 C789.037356,924.384 793.175981,923.616008 797.016,922.08 C800.85602,920.543992 804.055988,918.41068 806.616,915.68 C809.005346,913.290655 810.925327,910.560015 812.376,907.488 C813.826674,904.415985 814.807998,900.746688 815.32,896.48 L837.336,896.48 Z M932.112001,938.208 C929.210653,939.061338 925.669355,939.871996 921.488001,940.64 C917.306646,941.408004 912.229364,941.792 906.256001,941.792 C899.258632,941.792 893.456024,940.76801 888.848001,938.72 C884.239978,936.67199 880.613347,934.026683 877.968001,930.784 C875.322654,927.541317 873.445339,923.829354 872.336001,919.648 C871.226662,915.466646 870.672001,911.157356 870.672001,906.72 L870.672001,829.152 L845.584001,829.152 L845.584001,810.464 L870.672001,810.464 L870.672001,777.44 L892.432001,772.32 L892.432001,810.464 L930.832001,810.464 L930.832001,829.152 L892.432001,829.152 L892.432001,904.16 C892.432001,910.474698 893.839986,914.99732 896.656001,917.728 C899.472015,920.45868 903.866637,921.824 909.840001,921.824 C912.229346,921.824 914.703988,921.738668 917.264001,921.568 C919.824013,921.397332 922.213323,921.141335 924.432001,920.8 C926.992013,920.458665 929.551988,920.032003 932.112001,919.52 L932.112001,938.208 Z M955.464001,780.768 L955.464001,755.168 L980.808001,755.168 L980.808001,780.768 L955.464001,780.768 Z M957.000001,940 L957.000001,810.464 L979.272001,810.464 L979.272001,940 L957.000001,940 Z M1125.504,875.232 C1125.504,885.472051 1124.22401,895.114621 1121.664,904.16 C1119.10399,913.205379 1114.24004,921.226632 1107.072,928.224 C1102.29331,932.832023 1096.6187,936.50132 1090.048,939.232 C1083.4773,941.96268 1076.09604,943.328 1067.904,943.328 C1059.71196,943.328 1052.3307,941.96268 1045.76,939.232 C1039.1893,936.50132 1033.51469,932.832023 1028.736,928.224 C1021.56796,921.226632 1016.70401,913.205379 1014.144,904.16 C1011.58399,895.114621 1010.304,885.472051 1010.304,875.232 C1010.304,864.991949 1011.58399,855.349379 1014.144,846.304 C1016.70401,837.258621 1021.56796,829.237368 1028.736,822.24 C1033.51469,817.631977 1039.1893,813.96268 1045.76,811.232 C1052.3307,808.50132 1059.71196,807.136 1067.904,807.136 C1076.09604,807.136 1083.4773,808.50132 1090.048,811.232 C1096.6187,813.96268 1102.29331,817.631977 1107.072,822.24 C1114.24004,829.237368 1119.10399,837.258621 1121.664,846.304 C1124.22401,855.349379 1125.504,864.991949 1125.504,875.232 Z M1103.232,875.232 C1103.232,867.551962 1102.37868,860.128036 1100.672,852.96 C1098.96533,845.791964 1095.80802,839.818691 1091.2,835.04 C1088.46932,832.30932 1085.18402,830.090675 1081.344,828.384 C1077.50398,826.677325 1073.02403,825.824 1067.904,825.824 C1062.78398,825.824 1058.30402,826.677325 1054.464,828.384 C1050.62398,830.090675 1047.33868,832.30932 1044.608,835.04 C1039.99998,839.818691 1036.84268,845.791964 1035.136,852.96 C1033.42933,860.128036 1032.576,867.551962 1032.576,875.232 C1032.576,882.912038 1033.42933,890.335964 1035.136,897.504 C1036.84268,904.672036 1039.99998,910.645309 1044.608,915.424 C1047.33868,918.15468 1050.62398,920.373325 1054.464,922.08 C1058.30402,923.786675 1062.78398,924.64 1067.904,924.64 C1073.02403,924.64 1077.50398,923.786675 1081.344,922.08 C1085.18402,920.373325 1088.46932,918.15468 1091.2,915.424 C1095.80802,910.645309 1098.96533,904.672036 1100.672,897.504 C1102.37868,890.335964 1103.232,882.912038 1103.232,875.232 Z M1239.48,940 L1239.48,857.824 C1239.48,848.095951 1237.30402,840.501361 1232.952,835.04 C1228.59998,829.578639 1221.30405,826.848 1211.064,826.848 C1204.7493,826.848 1199.20269,828.682648 1194.424,832.352 C1189.64531,836.021352 1185.80535,840.842637 1182.904,846.816 C1180.68532,851.594691 1179.36267,857.055969 1178.936,863.2 C1178.50933,869.344031 1178.296,874.890642 1178.296,879.84 L1178.296,940 L1156.536,940 L1156.536,810.464 L1175.48,810.464 L1177.272,829.92 C1178.97868,826.165315 1181.28265,822.880014 1184.184,820.064 C1187.08535,817.247986 1190.32798,814.901343 1193.912,813.024 C1197.49602,811.146657 1201.25065,809.696005 1205.176,808.672 C1209.10135,807.647995 1212.85598,807.136 1216.44,807.136 C1231.28808,807.136 1242.46663,811.317292 1249.976,819.68 C1257.48537,828.042708 1261.24,839.733258 1261.24,854.752 L1261.24,940 L1239.48,940 Z M1395.696,902.368 C1395.696,908.000028 1394.75734,912.991978 1392.88,917.344 C1391.00266,921.696022 1388.52802,925.493317 1385.456,928.736 C1380.50664,933.856026 1374.3627,937.567988 1367.024,939.872 C1359.6853,942.176012 1351.74938,943.328 1343.216,943.328 C1335.02396,943.328 1327.34404,942.261344 1320.176,940.128 C1313.00797,937.994656 1306.69336,934.197361 1301.232,928.736 C1297.30665,924.810647 1294.23468,920.245359 1292.016,915.04 C1289.79732,909.834641 1288.688,904.501361 1288.688,899.04 L1310.448,899.04 C1310.61867,903.477356 1311.64266,907.359983 1313.52,910.688 C1315.39734,914.016017 1317.87199,916.874655 1320.944,919.264 C1323.84535,921.482678 1327.42931,923.018662 1331.696,923.872 C1335.96269,924.725338 1340.14398,925.152 1344.24,925.152 C1348.67736,925.152 1352.90131,924.682671 1356.912,923.744 C1360.92269,922.805329 1364.63465,920.885348 1368.048,917.984 C1369.92534,916.61866 1371.46133,914.656013 1372.656,912.096 C1373.85067,909.535987 1374.448,906.805348 1374.448,903.904 C1374.448,898.954642 1372.74135,894.858683 1369.328,891.616 C1365.91465,888.373317 1360.88003,886.325338 1354.224,885.472 L1325.04,881.632 C1315.31195,880.095992 1307.58936,876.384029 1301.872,870.496 C1296.15464,864.607971 1293.296,856.714716 1293.296,846.816 C1293.296,841.866642 1294.36266,837.130689 1296.496,832.608 C1298.62934,828.085311 1301.14665,824.373348 1304.048,821.472 C1308.31469,817.034644 1313.69064,813.536013 1320.176,810.976 C1326.66137,808.415987 1333.99996,807.136 1342.192,807.136 C1350.89604,807.136 1358.83197,808.50132 1366,811.232 C1373.16804,813.96268 1378.97065,818.058639 1383.408,823.52 C1386.30935,826.93335 1388.57066,830.602647 1390.192,834.528 C1391.81334,838.453353 1392.624,843.061307 1392.624,848.352 L1370.864,848.352 C1370.69333,844.93865 1369.88267,841.824014 1368.432,839.008 C1366.98133,836.191986 1365.31734,833.930675 1363.44,832.224 C1358.31998,827.615977 1351.23738,825.312 1342.192,825.312 C1339.63199,825.312 1337.24268,825.397332 1335.024,825.568 C1332.80532,825.738668 1330.16002,826.50666 1327.088,827.872 C1322.99198,829.578675 1319.79201,832.010651 1317.488,835.168 C1315.18399,838.325349 1314.032,841.695982 1314.032,845.28 C1314.032,850.741361 1315.56799,854.709321 1318.64,857.184 C1321.71202,859.658679 1325.97864,861.322662 1331.44,862.176 C1335.02402,862.688003 1339.37598,863.242664 1344.496,863.84 C1349.61603,864.437336 1355.67463,865.333327 1362.672,866.528 C1371.88805,868.064008 1379.69597,871.989302 1386.096,878.304 C1392.49603,884.618698 1395.696,892.639951 1395.696,902.368 Z M438.744,278.488 C438.744,289.240054 437.165349,299.309286 434.008,308.696 C430.850651,318.082714 426.200031,325.933302 420.056,332.248 C415.789312,336.685356 410.626697,340.141321 404.568,342.616 C398.509303,345.090679 391.469374,346.328 383.448,346.328 C376.109297,346.328 368.770703,344.578684 361.432,341.08 C354.093297,337.581316 348.546686,332.589366 344.792,326.104 L343.256,343 L324.056,343 L324.056,158.168 L345.816,158.168 L345.816,228.568 C347.522675,225.666652 349.783986,223.064012 352.6,220.76 C355.416014,218.455988 358.53065,216.536008 361.944,215 C365.35735,213.463992 368.898648,212.269338 372.568,211.416 C376.237352,210.562662 379.863982,210.136 383.448,210.136 C391.128038,210.136 397.911971,211.330655 403.8,213.72 C409.68803,216.109345 414.765312,219.266647 419.032,223.192 C425.517366,229.506698 430.423983,237.485285 433.752,247.128 C437.080017,256.770715 438.744,267.223944 438.744,278.488 Z M270.752,278.232 C270.752,270.551962 269.898675,263.128036 268.192,255.96 C266.485325,248.791964 263.328023,242.818691 258.72,238.04 C255.98932,235.30932 252.704019,233.090675 248.864,231.384 C245.023981,229.677325 240.544026,228.824 235.424,228.824 C230.303974,228.824 225.824019,229.677325 221.984,231.384 C218.143981,233.090675 214.85868,235.30932 212.128,238.04 C207.519977,242.818691 204.362675,248.791964 202.656,255.96 C200.949325,263.128036 200.096,270.551962 200.096,278.232 C200.096,285.912038 200.949325,293.335964 202.656,300.504 C204.362675,307.672036 207.519977,313.645309 212.128,318.424 C214.85868,321.15468 218.143981,323.373325 221.984,325.08 C225.824019,326.786675 230.303974,327.64 235.424,327.64 C240.544026,327.64 245.023981,326.786675 248.864,325.08 C252.704019,323.373325 255.98932,321.15468 258.72,318.424 C263.328023,313.645309 266.485325,307.672036 268.192,300.504 C269.898675,293.335964 270.752,285.912038 270.752,278.232 Z M293.024,278.232 C293.024,288.472051 291.744013,298.114621 289.184,307.16 C286.623987,316.205379 281.760036,324.226632 274.592,331.224 C269.813309,335.832023 264.1387,339.50132 257.568,342.232 C250.9973,344.96268 243.616041,346.328 235.424,346.328 C227.231959,346.328 219.8507,344.96268 213.28,342.232 C206.7093,339.50132 201.034691,335.832023 196.256,331.224 C189.087964,324.226632 184.224013,316.205379 181.664,307.16 C179.103987,298.114621 177.824,288.472051 177.824,278.232 C177.824,267.991949 179.103987,258.349379 181.664,249.304 C184.224013,240.258621 189.087964,232.237368 196.256,225.24 C201.034691,220.631977 206.7093,216.96268 213.28,214.232 C219.8507,211.50132 227.231959,210.136 235.424,210.136 C243.616041,210.136 250.9973,211.50132 257.568,214.232 C264.1387,216.96268 269.813309,220.631977 274.592,225.24 C281.760036,232.237368 286.623987,240.258621 289.184,249.304 C291.744013,258.349379 293.024,267.991949 293.024,278.232 Z M416.472,278.232 C416.472,272.258637 415.917339,266.328029 414.808,260.44 C413.698661,254.551971 411.77868,249.218691 409.048,244.44 C406.31732,239.661309 402.562691,235.821348 397.784,232.92 C393.00531,230.018652 387.032036,228.568 379.864,228.568 C375.08531,228.568 371.032017,229.378659 367.704,231 C364.375983,232.621341 361.432013,234.626655 358.872,237.016 C353.410639,241.794691 349.65601,247.81063 347.608,255.064 C345.55999,262.31737 344.536,270.039959 344.536,278.232 C344.536,286.424041 345.55999,294.14663 347.608,301.4 C349.65601,308.65337 353.410639,314.669309 358.872,319.448 C361.432013,321.837345 364.375983,323.842659 367.704,325.464 C371.032017,327.085341 375.08531,327.896 379.864,327.896 C387.032036,327.896 393.00531,326.445348 397.784,323.544 C402.562691,320.642652 406.31732,316.802691 409.048,312.024 C411.77868,307.245309 413.698661,301.912029 414.808,296.024 C415.917339,290.135971 416.472,284.205363 416.472,278.232 Z M470.8,183.768 L470.8,158.168 L496.144,158.168 L496.144,183.768 L470.8,183.768 Z M494.608,361.176 C494.608,372.440056 491.749362,381.3573 486.032,387.928 C480.314638,394.4987 471.312062,397.784 459.024,397.784 C455.61065,397.784 452.752012,397.613335 450.448,397.272 C448.143989,396.930665 445.370683,396.248005 442.128,395.224 L442.128,376.536 C444.858681,377.048003 447.546654,377.389332 450.192,377.56 C452.837347,377.730668 455.52532,377.816 458.256,377.816 C463.205358,377.816 466.874655,376.194683 469.264,372.952 C471.653345,369.709317 472.848,365.869356 472.848,361.432 L472.848,213.464 L494.608,213.464 L494.608,361.176 Z M636.232,299.48 C635.719998,306.477368 634.184013,312.621307 631.624,317.912 C629.063987,323.202693 625.565356,327.981312 621.128,332.248 C616.519977,336.685356 611.144031,340.141321 605,342.616 C598.85597,345.090679 591.773374,346.328 583.752,346.328 C571.975941,346.328 562.290705,343.981357 554.696,339.288 C547.101296,334.594643 541.000023,328.834701 536.392,322.008 C532.97865,316.887974 530.333343,310.744036 528.456,303.576 C526.578658,296.407964 525.64,287.960049 525.64,278.232 C525.64,268.503951 526.578658,260.056036 528.456,252.888 C530.333343,245.719964 532.97865,239.576026 536.392,234.456 C541.000023,227.629299 547.101296,221.869357 554.696,217.176 C562.290705,212.482643 571.890609,210.136 583.496,210.136 C591.176039,210.136 598.130636,211.330655 604.36,213.72 C610.589365,216.109345 615.922645,219.522644 620.36,223.96 C624.797356,228.226688 628.338654,233.047973 630.984,238.424 C633.629347,243.800027 635.207998,250.071964 635.72,257.24 L613.704,257.24 C613.191998,252.802644 612.125342,248.920017 610.504,245.592 C608.882659,242.263983 606.877346,239.405345 604.488,237.016 C601.927987,234.626655 598.856018,232.706674 595.272,231.256 C591.687982,229.805326 587.762688,229.08 583.496,229.08 C578.546642,229.08 574.280018,229.890659 570.696,231.512 C567.111982,233.133341 563.869348,235.138655 560.968,237.528 C555.847975,241.965356 552.392009,247.853297 550.6,255.192 C548.807991,262.530703 547.912,270.210627 547.912,278.232 C547.912,286.253373 548.807991,293.933297 550.6,301.272 C552.392009,308.610703 555.847975,314.498644 560.968,318.936 C563.869348,321.325345 567.111982,323.330659 570.696,324.952 C574.280018,326.573341 578.546642,327.384 583.496,327.384 C587.933356,327.384 592.071981,326.616008 595.912,325.08 C599.752019,323.543992 602.951987,321.41068 605.512,318.68 C607.901346,316.290655 609.821326,313.560015 611.272,310.488 C612.722674,307.415985 613.703998,303.746688 614.216,299.48 L636.232,299.48 Z M758.048035,350.104174 L773.634273,350.104174 L773.634273,217.787304 L824.184234,269.197043 L835.136725,258.662261 L765.63053,188.711304 L696.124334,258.662261 L707.076825,269.197043 L757.626786,217.787304 L757.626786,350.104174 L758.048035,350.104174 Z M907.170419,198.824696 L907.170419,331.141565 L856.620458,279.731826 L845.667967,290.266609 L915.174163,360.217565 L984.259109,289.845217 L973.306617,279.310435 L922.756657,330.720174 L922.756657,198.824696 L907.170419,198.824696 Z" id="Book-Title" fill="url(#linearGradient-1)"></path>
        </g>
    </g>
</svg>