<svg width="414" height="181" viewBox="0 0 414 181" fill="none" xmlns="http://www.w3.org/2000/svg">
<g clip-path="url(#clip0_2_1482)">
<rect width="414" height="1648" rx="30" fill="white"/>
<rect y="-57" width="414" height="237" fill="#017A48"/>
<path d="M129.5 132C129.5 114.879 143.379 101 160.5 101H167.5C184.621 101 198.5 114.879 198.5 132V188H129.5V132Z" fill="white"/>
<path d="M23 68H41V70H23V68ZM23 75H41V77H23V75ZM23 82H41V84H23V82Z" fill="white"/>
<path d="M342 65.5C346.968 65.5 351 69.532 351 74.5C351 79.468 346.968 83.5 342 83.5C337.032 83.5 333 79.468 333 74.5C333 69.532 337.032 65.5 342 65.5ZM342 81.5C345.867 81.5 349 78.367 349 74.5C349 70.632 345.867 67.5 342 67.5C338.132 67.5 335 70.632 335 74.5C335 78.367 338.132 81.5 342 81.5ZM350.485 81.571L353.314 84.399L351.899 85.814L349.071 82.985L350.485 81.571Z" fill="white"/>
<path d="M387 83.5V67.5H375V82.5C375 82.7652 375.105 83.0196 375.293 83.2071C375.48 83.3946 375.735 83.5 376 83.5H387ZM390 85.5H376C375.204 85.5 374.441 85.1839 373.879 84.6213C373.316 84.0587 373 83.2956 373 82.5V66.5C373 66.2348 373.105 65.9804 373.293 65.7929C373.48 65.6054 373.735 65.5 374 65.5H388C388.265 65.5 388.52 65.6054 388.707 65.7929C388.895 65.9804 389 66.2348 389 66.5V73.5H393V82.5C393 83.2956 392.684 84.0587 392.121 84.6213C391.559 85.1839 390.796 85.5 390 85.5ZM389 75.5V82.5C389 82.7652 389.105 83.0196 389.293 83.2071C389.48 83.3946 389.735 83.5 390 83.5C390.265 83.5 390.52 83.3946 390.707 83.2071C390.895 83.0196 391 82.7652 391 82.5V75.5H389ZM377 69.5H383V75.5H377V69.5ZM379 71.5V73.5H381V71.5H379ZM377 76.5H385V78.5H377V76.5ZM377 79.5H385V81.5H377V79.5Z" fill="white"/>
<path fill-rule="evenodd" clip-rule="evenodd" d="M223.425 180H229.5C212.379 180 198.5 166.121 198.5 149V155.075C198.172 153.267 198 151.403 198 149.5V180.5H229C227.097 180.5 225.233 180.328 223.425 180Z" fill="white"/>
<path fill-rule="evenodd" clip-rule="evenodd" d="M104.575 180H98.5C115.621 180 129.5 166.121 129.5 149V155.075C129.828 153.267 130 151.403 130 149.5V180.5H99C100.903 180.5 102.767 180.328 104.575 180Z" fill="white"/>
<path d="M233 148.5C233 149.328 233.672 150 234.5 150C235.328 150 236 149.328 236 148.5H233ZM234.5 129L233.158 128.329C233.054 128.537 233 128.767 233 129H234.5ZM240 118V116.5C239.432 116.5 238.912 116.821 238.658 117.329L240 118ZM263 118L264.342 117.329C264.088 116.821 263.568 116.5 263 116.5V118ZM268.5 129H270C270 128.767 269.946 128.537 269.842 128.329L268.5 129ZM267 147.5C267 148.328 267.672 149 268.5 149C269.328 149 270 148.328 270 147.5H267ZM236 148.5V129H233V148.5H236ZM235.842 129.671L241.342 118.671L238.658 117.329L233.158 128.329L235.842 129.671ZM240 119.5H263V116.5H240V119.5ZM261.658 118.671L267.158 129.671L269.842 128.329L264.342 117.329L261.658 118.671ZM267 129V147.5H270V129H267Z" fill="white"/>
<path d="M234.5 144H268.5" stroke="white" stroke-width="3"/>
<path d="M234.5 130H268.5" stroke="white" stroke-width="3"/>
<rect x="239" y="136.5" width="6" height="3" rx="1.5" fill="white"/>
<rect x="233" y="151" width="7" height="5" rx="2" transform="rotate(-90 233 151)" fill="white"/>
<rect x="265" y="151" width="7" height="5" rx="2" transform="rotate(-90 265 151)" fill="white"/>
<rect x="258" y="136.5" width="6" height="3" rx="1.5" fill="white"/>
<path d="M90 149.297H62C61.4696 149.297 60.9609 149.086 60.5858 148.711C60.2107 148.336 60 147.827 60 147.297V129.297H54L74.654 110.521C75.0222 110.186 75.5022 110 76 110C76.4978 110 76.9778 110.186 77.346 110.521L98 129.297H92V147.297C92 147.827 91.7893 148.336 91.4142 148.711C91.0391 149.086 90.5304 149.297 90 149.297ZM64 145.297H88V125.611L76 114.703L64 125.611V145.297Z" fill="white"/>
<path d="M141 122.994C147.398 117.811 155.386 114.988 163.62 115C172.19 115 180.06 117.994 186.24 122.994L183.728 126.106C178.04 121.498 170.94 118.989 163.62 119C156.002 119 149.008 121.66 143.512 126.106L141 122.994ZM147.282 130.774C151.903 127.03 157.672 124.991 163.62 125C169.808 125 175.492 127.162 179.958 130.772L177.444 133.884C173.534 130.717 168.652 128.992 163.62 129C158.384 129 153.574 130.83 149.796 133.884L147.282 130.772V130.774ZM153.566 138.554C156.41 136.25 159.96 134.995 163.62 135C167.428 135 170.926 136.33 173.674 138.552L171.16 141.664C169.027 139.936 166.365 138.996 163.62 139C160.764 139 158.14 139.998 156.08 141.664L153.566 138.552V138.554ZM159.85 146.334C160.916 145.469 162.247 144.998 163.62 145C165.048 145 166.36 145.5 167.39 146.332L163.62 151L159.85 146.332V146.334Z" fill="#017A48"/>
<path fill-rule="evenodd" clip-rule="evenodd" d="M353.921 129.5L343.05 136.747V144.118L357.4 134.625V127.181L353.921 129.5ZM320.5 123.35C320.5 123.013 320.583 122.68 320.742 122.383C320.901 122.085 321.132 121.832 321.412 121.645L339.862 109.345C340.199 109.12 340.595 109 341 109C341.405 109 341.801 109.12 342.138 109.345L360.588 121.645C360.868 121.832 361.099 122.085 361.258 122.383C361.417 122.68 361.5 123.013 361.5 123.35V135.65C361.5 135.987 361.417 136.32 361.258 136.617C361.099 136.915 360.868 137.168 360.588 137.355L342.138 149.655C341.801 149.88 341.405 150 341 150C340.595 150 340.199 149.88 339.862 149.655L321.412 137.355C321.132 137.168 320.901 136.915 320.742 136.617C320.583 136.32 320.5 135.987 320.5 135.65V123.35ZM341 133.186L355.754 123.35L341 113.1L326.246 123.35L341 133.186ZM338.95 144.118L324.6 134.625V127.181L328.079 129.5L338.95 136.747V144.118Z" fill="white"/>
<path d="M331.649 116.416L350.184 130.5" stroke="white"/>
<path d="M162.102 76.6699H164.727C164.59 77.9277 164.23 79.0534 163.646 80.0469C163.063 81.0404 162.238 81.8288 161.172 82.4121C160.105 82.9863 158.775 83.2734 157.18 83.2734C156.013 83.2734 154.951 83.0547 153.994 82.6172C153.046 82.1797 152.23 81.5599 151.547 80.7578C150.863 79.9466 150.335 78.9759 149.961 77.8457C149.596 76.7064 149.414 75.4395 149.414 74.0449V72.0625C149.414 70.668 149.596 69.4056 149.961 68.2754C150.335 67.1361 150.868 66.1608 151.561 65.3496C152.262 64.5384 153.105 63.9141 154.09 63.4766C155.074 63.0391 156.182 62.8203 157.412 62.8203C158.916 62.8203 160.188 63.1029 161.227 63.668C162.266 64.2331 163.072 65.0169 163.646 66.0195C164.23 67.013 164.59 68.166 164.727 69.4785H162.102C161.974 68.5488 161.737 67.7513 161.391 67.0859C161.044 66.4115 160.552 65.8919 159.914 65.5273C159.276 65.1628 158.442 64.9805 157.412 64.9805C156.528 64.9805 155.749 65.1491 155.074 65.4863C154.409 65.8236 153.848 66.3021 153.393 66.9219C152.946 67.5417 152.609 68.2845 152.381 69.1504C152.153 70.0163 152.039 70.9779 152.039 72.0352V74.0449C152.039 75.0202 152.139 75.9362 152.34 76.793C152.549 77.6497 152.864 78.4017 153.283 79.0488C153.702 79.696 154.236 80.2064 154.883 80.5801C155.53 80.9447 156.296 81.127 157.18 81.127C158.301 81.127 159.194 80.9492 159.859 80.5938C160.525 80.2383 161.026 79.7279 161.363 79.0625C161.71 78.3971 161.956 77.5996 162.102 76.6699ZM167.27 75.7676V75.4531C167.27 74.3867 167.424 73.3978 167.734 72.4863C168.044 71.5658 168.491 70.7682 169.074 70.0938C169.658 69.4102 170.364 68.8815 171.193 68.5078C172.023 68.125 172.952 67.9336 173.982 67.9336C175.021 67.9336 175.956 68.125 176.785 68.5078C177.624 68.8815 178.335 69.4102 178.918 70.0938C179.51 70.7682 179.962 71.5658 180.271 72.4863C180.581 73.3978 180.736 74.3867 180.736 75.4531V75.7676C180.736 76.834 180.581 77.8229 180.271 78.7344C179.962 79.6458 179.51 80.4434 178.918 81.127C178.335 81.8014 177.628 82.3301 176.799 82.7129C175.979 83.0866 175.049 83.2734 174.01 83.2734C172.971 83.2734 172.036 83.0866 171.207 82.7129C170.378 82.3301 169.667 81.8014 169.074 81.127C168.491 80.4434 168.044 79.6458 167.734 78.7344C167.424 77.8229 167.27 76.834 167.27 75.7676ZM169.799 75.4531V75.7676C169.799 76.5059 169.885 77.2031 170.059 77.8594C170.232 78.5065 170.492 79.0807 170.838 79.582C171.193 80.0833 171.635 80.4798 172.164 80.7715C172.693 81.054 173.308 81.1953 174.01 81.1953C174.702 81.1953 175.309 81.054 175.828 80.7715C176.357 80.4798 176.794 80.0833 177.141 79.582C177.487 79.0807 177.747 78.5065 177.92 77.8594C178.102 77.2031 178.193 76.5059 178.193 75.7676V75.4531C178.193 74.724 178.102 74.0358 177.92 73.3887C177.747 72.7324 177.482 72.1536 177.127 71.6523C176.781 71.1419 176.343 70.7409 175.814 70.4492C175.295 70.1576 174.684 70.0117 173.982 70.0117C173.29 70.0117 172.679 70.1576 172.15 70.4492C171.631 70.7409 171.193 71.1419 170.838 71.6523C170.492 72.1536 170.232 72.7324 170.059 73.3887C169.885 74.0358 169.799 74.724 169.799 75.4531ZM186.424 71.1465V83H183.881V68.207H186.287L186.424 71.1465ZM185.904 75.043L184.729 75.002C184.738 73.9902 184.87 73.056 185.125 72.1992C185.38 71.3333 185.758 70.5814 186.26 69.9434C186.761 69.3053 187.385 68.8132 188.133 68.4668C188.88 68.1113 189.746 67.9336 190.73 67.9336C191.423 67.9336 192.061 68.0339 192.645 68.2344C193.228 68.4258 193.734 68.7311 194.162 69.1504C194.59 69.5697 194.923 70.1074 195.16 70.7637C195.397 71.4199 195.516 72.2129 195.516 73.1426V83H192.986V73.2656C192.986 72.4909 192.854 71.8711 192.59 71.4062C192.335 70.9414 191.97 70.6042 191.496 70.3945C191.022 70.1758 190.466 70.0664 189.828 70.0664C189.081 70.0664 188.456 70.1986 187.955 70.4629C187.454 70.7272 187.053 71.0918 186.752 71.5566C186.451 72.0215 186.232 72.5547 186.096 73.1562C185.968 73.7487 185.904 74.3776 185.904 75.043ZM195.488 73.6484L193.793 74.168C193.802 73.3568 193.934 72.5775 194.189 71.8301C194.454 71.0827 194.832 70.4173 195.324 69.834C195.826 69.2507 196.441 68.7904 197.17 68.4531C197.899 68.1068 198.733 67.9336 199.672 67.9336C200.465 67.9336 201.167 68.0384 201.777 68.248C202.397 68.4577 202.917 68.7812 203.336 69.2188C203.764 69.6471 204.088 70.1986 204.307 70.873C204.525 71.5475 204.635 72.3496 204.635 73.2793V83H202.092V73.252C202.092 72.4225 201.96 71.7799 201.695 71.3242C201.44 70.8594 201.076 70.5358 200.602 70.3535C200.137 70.1621 199.581 70.0664 198.934 70.0664C198.378 70.0664 197.885 70.1621 197.457 70.3535C197.029 70.5449 196.669 70.8092 196.377 71.1465C196.085 71.4746 195.862 71.8529 195.707 72.2812C195.561 72.7096 195.488 73.1654 195.488 73.6484ZM210.992 71.0508V88.6875H208.449V68.207H210.773L210.992 71.0508ZM220.959 75.4805V75.7676C220.959 76.8431 220.831 77.8411 220.576 78.7617C220.321 79.6732 219.947 80.4661 219.455 81.1406C218.972 81.8151 218.375 82.3392 217.664 82.7129C216.953 83.0866 216.137 83.2734 215.217 83.2734C214.278 83.2734 213.449 83.1185 212.729 82.8086C212.008 82.4987 211.398 82.0475 210.896 81.4551C210.395 80.8626 209.994 80.1517 209.693 79.3223C209.402 78.4928 209.201 77.5586 209.092 76.5195V74.9883C209.201 73.8945 209.406 72.9147 209.707 72.0488C210.008 71.1829 210.404 70.4447 210.896 69.834C211.398 69.2142 212.004 68.7448 212.715 68.4258C213.426 68.0977 214.246 67.9336 215.176 67.9336C216.105 67.9336 216.93 68.1159 217.65 68.4805C218.37 68.8359 218.977 69.3464 219.469 70.0117C219.961 70.6771 220.33 71.4746 220.576 72.4043C220.831 73.3249 220.959 74.3503 220.959 75.4805ZM218.416 75.7676V75.4805C218.416 74.7422 218.339 74.0495 218.184 73.4023C218.029 72.7461 217.787 72.1719 217.459 71.6797C217.14 71.1784 216.73 70.7865 216.229 70.5039C215.727 70.2122 215.13 70.0664 214.438 70.0664C213.799 70.0664 213.243 70.1758 212.77 70.3945C212.305 70.6133 211.908 70.9095 211.58 71.2832C211.252 71.6478 210.983 72.0671 210.773 72.541C210.573 73.0059 210.423 73.4889 210.322 73.9902V77.5312C210.505 78.1693 210.76 78.7708 211.088 79.3359C211.416 79.8919 211.854 80.3431 212.4 80.6895C212.947 81.0267 213.635 81.1953 214.465 81.1953C215.148 81.1953 215.736 81.054 216.229 80.7715C216.73 80.4798 217.14 80.0833 217.459 79.582C217.787 79.0807 218.029 78.5065 218.184 77.8594C218.339 77.2031 218.416 76.5059 218.416 75.7676ZM232.908 80.4707V72.8555C232.908 72.2721 232.79 71.7663 232.553 71.3379C232.325 70.9004 231.979 70.5632 231.514 70.3262C231.049 70.0892 230.475 69.9707 229.791 69.9707C229.153 69.9707 228.592 70.0801 228.109 70.2988C227.635 70.5176 227.262 70.8047 226.988 71.1602C226.724 71.5156 226.592 71.8984 226.592 72.3086H224.062C224.062 71.7799 224.199 71.2559 224.473 70.7363C224.746 70.2168 225.138 69.7474 225.648 69.3281C226.168 68.8997 226.788 68.5625 227.508 68.3164C228.237 68.0612 229.048 67.9336 229.941 67.9336C231.017 67.9336 231.965 68.1159 232.785 68.4805C233.615 68.8451 234.262 69.3965 234.727 70.1348C235.201 70.8639 235.438 71.7799 235.438 72.8828V79.7734C235.438 80.2656 235.479 80.7897 235.561 81.3457C235.652 81.9017 235.784 82.3802 235.957 82.7812V83H233.318C233.191 82.7083 233.09 82.321 233.018 81.8379C232.945 81.3457 232.908 80.89 232.908 80.4707ZM233.346 74.0312L233.373 75.8086H230.816C230.096 75.8086 229.454 75.8678 228.889 75.9863C228.324 76.0957 227.85 76.2643 227.467 76.4922C227.084 76.7201 226.792 77.0072 226.592 77.3535C226.391 77.6908 226.291 78.0872 226.291 78.543C226.291 79.0078 226.396 79.4316 226.605 79.8145C226.815 80.1973 227.13 80.5026 227.549 80.7305C227.977 80.9492 228.501 81.0586 229.121 81.0586C229.896 81.0586 230.579 80.8945 231.172 80.5664C231.764 80.2383 232.234 79.8372 232.58 79.3633C232.936 78.8893 233.127 78.429 233.154 77.9824L234.234 79.1992C234.171 79.582 233.997 80.0059 233.715 80.4707C233.432 80.9355 233.054 81.3822 232.58 81.8105C232.115 82.2298 231.559 82.5807 230.912 82.8633C230.274 83.1367 229.554 83.2734 228.752 83.2734C227.749 83.2734 226.87 83.0775 226.113 82.6855C225.366 82.2936 224.783 81.7695 224.363 81.1133C223.953 80.4479 223.748 79.7051 223.748 78.8848C223.748 78.0918 223.903 77.3945 224.213 76.793C224.523 76.1823 224.969 75.6764 225.553 75.2754C226.136 74.8652 226.838 74.5553 227.658 74.3457C228.479 74.1361 229.395 74.0312 230.406 74.0312H233.346ZM241.945 71.3652V83H239.416V68.207H241.809L241.945 71.3652ZM241.344 75.043L240.291 75.002C240.3 73.9902 240.451 73.056 240.742 72.1992C241.034 71.3333 241.444 70.5814 241.973 69.9434C242.501 69.3053 243.13 68.8132 243.859 68.4668C244.598 68.1113 245.413 67.9336 246.307 67.9336C247.036 67.9336 247.692 68.0339 248.275 68.2344C248.859 68.4258 249.355 68.7357 249.766 69.1641C250.185 69.5924 250.504 70.1484 250.723 70.832C250.941 71.5065 251.051 72.3314 251.051 73.3066V83H248.508V73.2793C248.508 72.5046 248.394 71.8848 248.166 71.4199C247.938 70.946 247.605 70.6042 247.168 70.3945C246.73 70.1758 246.193 70.0664 245.555 70.0664C244.926 70.0664 244.352 70.1986 243.832 70.4629C243.322 70.7272 242.88 71.0918 242.506 71.5566C242.141 72.0215 241.854 72.5547 241.645 73.1562C241.444 73.7487 241.344 74.3776 241.344 75.043ZM259.049 81.4688L263.164 68.207H265.871L259.938 85.2832C259.801 85.6478 259.618 86.0397 259.391 86.459C259.172 86.8874 258.889 87.293 258.543 87.6758C258.197 88.0586 257.777 88.3685 257.285 88.6055C256.802 88.8516 256.223 88.9746 255.549 88.9746C255.348 88.9746 255.093 88.9473 254.783 88.8926C254.473 88.8379 254.255 88.7923 254.127 88.7559L254.113 86.7051C254.186 86.7142 254.3 86.7233 254.455 86.7324C254.619 86.7507 254.733 86.7598 254.797 86.7598C255.371 86.7598 255.859 86.6823 256.26 86.5273C256.661 86.3815 256.998 86.1309 257.271 85.7754C257.554 85.429 257.796 84.9505 257.996 84.3398L259.049 81.4688ZM256.027 68.207L259.869 79.6914L260.525 82.3574L258.707 83.2871L253.266 68.207H256.027Z" fill="white"/>
</g>
<defs>
<clipPath id="clip0_2_1482">
<rect width="414" height="1648" rx="30" fill="white"/>
</clipPath>
</defs>
</svg>
